<svg xmlns="http://www.w3.org/2000/svg" xmlns:xlink="http://www.w3.org/1999/xlink" width="500" zoomAndPan="magnify" viewBox="0 0 375 374.999991" height="500" preserveAspectRatio="xMidYMid meet" version="1.0"><defs><clipPath id="783a0b6502"><path d="M 22.679688 22.679688 L 352.320312 22.679688 L 352.320312 352.320312 L 22.679688 352.320312 Z M 22.679688 22.679688 " clip-rule="nonzero"/></clipPath><clipPath id="fcc37755d3"><path d="M 187.5 22.679688 C 96.472656 22.679688 22.679688 96.472656 22.679688 187.5 C 22.679688 278.527344 96.472656 352.320312 187.5 352.320312 C 278.527344 352.320312 352.320312 278.527344 352.320312 187.5 C 352.320312 96.472656 278.527344 22.679688 187.5 22.679688 Z M 187.5 22.679688 " clip-rule="nonzero"/></clipPath><clipPath id="ee046e7254"><path d="M 0.679688 0.679688 L 330.320312 0.679688 L 330.320312 330.320312 L 0.679688 330.320312 Z M 0.679688 0.679688 " clip-rule="nonzero"/></clipPath><clipPath id="87dd9cef18"><path d="M 165.5 0.679688 C 74.472656 0.679688 0.679688 74.472656 0.679688 165.5 C 0.679688 256.527344 74.472656 330.320312 165.5 330.320312 C 256.527344 330.320312 330.320312 256.527344 330.320312 165.5 C 330.320312 74.472656 256.527344 0.679688 165.5 0.679688 Z M 165.5 0.679688 " clip-rule="nonzero"/></clipPath><clipPath id="d6f1ebe2d7"><rect x="0" width="331" y="0" height="331"/></clipPath><clipPath id="42a1b32fad"><path d="M 70.40625 71.261719 L 324.65625 71.261719 L 324.65625 352 L 70.40625 352 Z M 70.40625 71.261719 " clip-rule="nonzero"/></clipPath></defs><g clip-path="url(#783a0b6502)"><g clip-path="url(#fcc37755d3)"><g transform="matrix(1, 0, 0, 1, 22, 22)"><g clip-path="url(#d6f1ebe2d7)"><g clip-path="url(#ee046e7254)"><g clip-path="url(#87dd9cef18)"><path fill="#3961e3" d="M 0.679688 0.679688 L 330.320312 0.679688 L 330.320312 330.320312 L 0.679688 330.320312 Z M 0.679688 0.679688 " fill-opacity="1" fill-rule="nonzero"/></g></g></g></g></g></g><g clip-path="url(#42a1b32fad)"><path fill="#ffffff" d="M 303.824219 247.0625 C 302.695312 245.933594 300.867188 245.933594 299.742188 247.0625 L 221.144531 325.660156 C 220.015625 326.785156 218.1875 326.785156 217.058594 325.660156 L 187.027344 295.628906 C 186.488281 295.085938 185.753906 294.78125 184.988281 294.78125 C 184.222656 294.78125 183.488281 295.085938 182.945312 295.628906 L 127.457031 351.117188 C 126.328125 352.246094 124.5 352.246094 123.371094 351.117188 L 110.320312 338.066406 C 109.191406 336.9375 109.191406 335.109375 110.320312 333.984375 L 182.945312 261.359375 C 183.488281 260.816406 184.222656 260.511719 184.988281 260.511719 C 185.753906 260.511719 186.488281 260.816406 187.027344 261.359375 L 217.058594 291.390625 C 217.601562 291.929688 218.335938 292.234375 219.101562 292.234375 C 219.867188 292.234375 220.601562 291.929688 221.144531 291.390625 L 282.605469 229.925781 C 283.148438 229.386719 283.453125 228.648438 283.453125 227.882812 C 283.453125 227.117188 283.148438 226.382812 282.605469 225.84375 L 274.320312 217.558594 C 273.5625 216.800781 273.289062 215.6875 273.605469 214.664062 C 273.921875 213.640625 274.777344 212.875 275.828125 212.679688 L 321.179688 204.144531 C 322.117188 203.964844 323.082031 204.265625 323.753906 204.9375 C 324.429688 205.613281 324.726562 206.578125 324.550781 207.515625 L 316.015625 252.863281 C 315.816406 253.917969 315.054688 254.773438 314.03125 255.089844 C 313.007812 255.40625 311.894531 255.128906 311.136719 254.371094 Z M 137.875 293.363281 C 98.027344 274.898438 70.390625 234.546875 70.390625 187.734375 C 70.390625 123.464844 122.480469 71.375 186.75 71.375 C 251.019531 71.375 303.109375 123.464844 303.109375 187.734375 C 303.109375 191.273438 302.953125 194.773438 302.644531 198.230469 L 293.175781 200.011719 C 293.636719 195.984375 293.871094 191.886719 293.871094 187.734375 C 293.871094 128.570312 245.917969 80.617188 186.75 80.617188 C 127.582031 80.617188 79.628906 128.570312 79.628906 187.734375 C 79.628906 217.332031 91.628906 244.125 111.03125 263.511719 C 119.449219 229.511719 150.164062 204.296875 186.75 204.296875 C 216.097656 204.296875 241.664062 220.519531 254.980469 244.488281 L 219.101562 280.367188 L 193.5625 254.824219 C 191.289062 252.550781 188.203125 251.273438 184.988281 251.273438 C 181.769531 251.273438 178.6875 252.550781 176.414062 254.824219 Z M 186.75 198.523438 C 165.039062 198.523438 147.289062 180.773438 147.289062 159.0625 C 147.289062 137.351562 165.039062 119.601562 186.75 119.601562 C 208.460938 119.601562 226.210938 137.351562 226.210938 159.0625 C 226.210938 180.773438 208.460938 198.523438 186.75 198.523438 Z M 186.75 198.523438 " fill-opacity="1" fill-rule="evenodd"/></g></svg>